<svg width="506" height="378" viewBox="0 0 506 378" fill="none" xmlns="http://www.w3.org/2000/svg">
<g clip-path="url(#clip0)">
<path d="M93.5972 196.867L86.8256 125.002L66.6338 125.699L82.6177 196.667C81.3137 197.762 80.3748 199.231 79.9268 200.875C79.4788 202.52 79.543 204.262 80.1108 205.869C80.6786 207.476 81.7229 208.871 83.104 209.867C84.4852 210.864 86.1374 211.415 87.8396 211.446C89.5419 211.477 91.2131 210.987 92.6297 210.042C94.0463 209.096 95.1408 207.74 95.7668 206.155C96.3928 204.57 96.5205 202.831 96.1328 201.172C95.7451 199.512 94.8604 198.01 93.5972 196.867L93.5972 196.867Z" fill="#FFB8B8"/>
<path d="M477.465 357.045C477.279 364.005 476.115 370.904 474.006 377.539C473.958 377.693 473.907 377.845 473.857 377.999H460.946C460.96 377.859 460.974 377.706 460.987 377.539C461.848 367.632 466.811 307.332 460.877 297.02C461.397 297.857 478.464 325.564 477.465 357.045Z" fill="#6FCF97"/>
<path d="M475.393 377.039C475.168 377.361 474.933 377.683 474.692 378H454.439C454.593 377.726 454.771 377.404 454.977 377.039C458.323 370.992 468.226 352.92 477.42 334.177C487.299 314.039 496.362 293.138 495.599 285.573C495.834 287.279 502.668 339.291 475.393 377.039Z" fill="#6FCF97"/>
<path d="M30.5406 346.487C30.818 356.853 32.5525 367.128 35.693 377.009C35.7626 377.238 35.8399 377.464 35.9151 377.693H55.1405C55.1203 377.488 55.0994 377.258 55.0792 377.009C53.7974 362.254 46.4065 272.455 55.2435 257.098C54.47 258.344 29.0471 299.606 30.5406 346.487Z" fill="#6FCF97"/>
<path d="M31.9833 377.009C32.1441 377.238 32.3112 377.467 32.4825 377.693H46.905C46.7957 377.498 46.669 377.269 46.5221 377.009C44.1395 372.704 37.0869 359.831 30.5406 346.487C23.5083 332.147 17.0511 317.263 17.5949 311.876C17.4271 313.09 12.5588 350.129 31.9833 377.009Z" fill="#6FCF97"/>
<path d="M448.465 302.661H247.754C246.768 302.66 245.824 302.267 245.127 301.57C244.43 300.872 244.038 299.926 244.037 298.94V249.093C244.038 248.107 244.43 247.161 245.127 246.463C245.824 245.766 246.768 245.373 247.754 245.372H448.465C449.451 245.373 450.395 245.766 451.092 246.463C451.789 247.161 452.181 248.107 452.182 249.093V298.939C452.181 299.926 451.789 300.872 451.092 301.569C450.395 302.267 449.451 302.66 448.465 302.661ZM247.754 246.858C247.163 246.859 246.597 247.094 246.18 247.512C245.762 247.93 245.527 248.497 245.526 249.088V298.934C245.527 299.526 245.762 300.092 246.18 300.51C246.597 300.928 247.163 301.164 247.754 301.165H448.465C449.056 301.164 449.622 300.929 450.04 300.511C450.457 300.092 450.692 299.526 450.693 298.934V249.093C450.692 248.502 450.457 247.935 450.04 247.517C449.622 247.099 449.056 246.864 448.465 246.863L247.754 246.858Z" fill="#3F3D56"/>
<path d="M228.808 362.823C237.17 362.823 243.949 356.037 243.949 347.665C243.949 339.294 237.17 332.507 228.808 332.507C220.447 332.507 213.668 339.294 213.668 347.665C213.668 356.037 220.447 362.823 228.808 362.823Z" fill="#E6E6E6"/>
<path d="M263.776 338.083C263.107 338.083 262.465 338.349 261.992 338.823C261.519 339.297 261.253 339.939 261.253 340.609C261.253 341.279 261.519 341.922 261.992 342.396C262.465 342.869 263.107 343.136 263.776 343.136H382.738C383.069 343.136 383.398 343.071 383.704 342.945C384.01 342.819 384.289 342.633 384.524 342.399C384.758 342.165 384.945 341.887 385.072 341.581C385.2 341.274 385.266 340.946 385.266 340.614C385.267 340.283 385.202 339.954 385.076 339.647C384.95 339.34 384.765 339.062 384.531 338.826C384.297 338.591 384.019 338.405 383.713 338.277C383.407 338.15 383.079 338.084 382.748 338.083H263.776Z" fill="#E6E6E6"/>
<path d="M263.776 353.242C263.107 353.24 262.465 353.505 261.991 353.978C261.516 354.451 261.249 355.093 261.248 355.763C261.247 356.433 261.511 357.076 261.984 357.551C262.456 358.026 263.097 358.293 263.766 358.294H314.966C315.635 358.294 316.277 358.028 316.75 357.554C317.223 357.081 317.489 356.438 317.489 355.768C317.489 355.098 317.223 354.455 316.75 353.982C316.277 353.508 315.635 353.242 314.966 353.242H263.776Z" fill="#E6E6E6"/>
<path d="M278.94 288.933C287.302 288.933 294.08 282.146 294.08 273.775C294.08 265.403 287.302 258.617 278.94 258.617C270.578 258.617 263.799 265.403 263.799 273.775C263.799 282.146 270.578 288.933 278.94 288.933Z" fill="#E6E6E6"/>
<path d="M313.908 264.193C313.238 264.193 312.597 264.459 312.123 264.933C311.65 265.406 311.384 266.049 311.384 266.719C311.384 267.389 311.65 268.031 312.123 268.505C312.597 268.979 313.238 269.245 313.908 269.245H432.869C433.539 269.245 434.18 268.979 434.654 268.505C435.127 268.031 435.393 267.389 435.393 266.719C435.393 266.049 435.127 265.406 434.654 264.933C434.18 264.459 433.539 264.193 432.869 264.193H313.908Z" fill="#E6E6E6"/>
<path d="M313.908 279.351C313.238 279.351 312.597 279.617 312.123 280.091C311.65 280.565 311.384 281.208 311.384 281.878C311.384 282.548 311.65 283.19 312.123 283.664C312.597 284.138 313.238 284.404 313.908 284.404H365.097C365.766 284.404 366.408 284.138 366.881 283.664C367.355 283.19 367.621 282.548 367.621 281.878C367.621 281.208 367.355 280.565 366.881 280.091C366.408 279.617 365.766 279.351 365.097 279.351H313.908Z" fill="#E6E6E6"/>
<path d="M409.474 179.278H208.763C207.777 179.277 206.833 178.884 206.136 178.187C205.439 177.489 205.047 176.543 205.046 175.557V3.72102C205.047 2.73455 205.439 1.78884 206.136 1.0913C206.833 0.393751 207.777 0.00130443 208.763 1.33514e-05H409.474C410.459 0.00130443 411.404 0.393751 412.101 1.0913C412.798 1.78884 413.189 2.73455 413.191 3.72102V175.556C413.19 176.543 412.798 177.488 412.101 178.186C411.404 178.884 410.459 179.276 409.474 179.277V179.278ZM208.763 1.48549C208.172 1.48678 207.606 1.72221 207.189 2.14026C206.771 2.55831 206.536 3.12493 206.535 3.71614V175.556C206.536 176.147 206.771 176.714 207.189 177.132C207.606 177.55 208.172 177.785 208.763 177.787H409.474C410.065 177.786 410.631 177.55 411.048 177.132C411.466 176.714 411.701 176.147 411.702 175.556V3.72102C411.701 3.12981 411.466 2.56319 411.048 2.14514C410.631 1.72709 410.065 1.49166 409.474 1.49037L208.763 1.48549Z" fill="#3F3D56"/>
<path d="M239.948 45.375C248.31 45.375 255.089 38.5885 255.089 30.217C255.089 21.8455 248.31 15.059 239.948 15.059C231.587 15.059 224.808 21.8455 224.808 30.217C224.808 38.5885 231.587 45.375 239.948 45.375Z" fill="#6C63FF"/>
<path d="M274.917 20.1115C274.247 20.1115 273.606 20.3776 273.132 20.8514C272.659 21.3251 272.393 21.9677 272.393 22.6377C272.393 23.3077 272.659 23.9502 273.132 24.424C273.606 24.8978 274.247 25.1639 274.917 25.1639H393.878C394.548 25.1639 395.189 24.8978 395.663 24.424C396.136 23.9502 396.402 23.3077 396.402 22.6377C396.402 21.9677 396.136 21.3251 395.663 20.8514C395.189 20.3776 394.548 20.1115 393.878 20.1115H274.917Z" fill="#CCCCCC"/>
<path d="M274.917 35.2702C274.247 35.2702 273.606 35.5363 273.132 36.0101C272.659 36.4838 272.393 37.1264 272.393 37.7964C272.393 38.4664 272.659 39.1089 273.132 39.5827C273.606 40.0565 274.247 40.3226 274.917 40.3226H326.106C326.776 40.3226 327.417 40.0565 327.891 39.5827C328.364 39.1089 328.63 38.4664 328.63 37.7964C328.63 37.1264 328.364 36.4838 327.891 36.0101C327.417 35.5363 326.776 35.2702 326.106 35.2702H274.917Z" fill="#CCCCCC"/>
<path d="M154.363 363.403H139.045L129.994 235.837L129.645 268.252L96.2245 357.478L82.9954 347.022L104.928 258.144L94.4838 208.651H162.718L154.363 363.403Z" fill="#2F2E41"/>
<path d="M129.994 51.1113C139.992 51.1113 148.097 42.9969 148.097 32.9872C148.097 22.9776 139.992 14.8631 129.994 14.8631C119.996 14.8631 111.891 22.9776 111.891 32.9872C111.891 42.9969 119.996 51.1113 129.994 51.1113Z" fill="#FFB8B8"/>
<path d="M164.808 218.411C135.232 210.812 107.481 205.692 90.3069 214.925C93.3148 183.27 89.8355 142.862 79.5147 100.628C76.1629 86.9106 78.4362 74.5499 90.655 67.4927L107.017 58.0821L132.083 58.7792L145.161 66.0232C151.556 69.2225 156.734 74.4239 159.907 80.8374C163.081 87.251 164.077 94.5263 162.745 101.558C155.717 138.578 159.515 178.533 164.808 218.411Z" fill="#3F3D56"/>
<path d="M97.2696 129.881L64.5449 127.79C67.1016 95.5599 74.3776 77.9412 85.433 72.0237L97.2696 85.9653V129.881Z" fill="#3F3D56"/>
<path d="M457.161 156.986H256.449C255.463 156.985 254.519 156.592 253.822 155.895C253.125 155.197 252.733 154.251 252.732 153.265V65.0794C252.733 64.0929 253.125 63.147 253.822 62.4495C254.519 61.7519 255.463 61.3595 256.449 61.3584H457.161C458.146 61.3595 459.091 61.7519 459.788 62.4495C460.484 63.147 460.876 64.0929 460.878 65.0794V153.265C460.876 154.251 460.484 155.197 459.788 155.895C459.091 156.592 458.146 156.985 457.161 156.986Z" fill="#6C63FF"/>
<path d="M297.324 92.0954C296.655 92.0954 296.013 92.3616 295.54 92.8354C295.066 93.3091 294.801 93.9517 294.801 94.6217C294.801 95.2917 295.066 95.9342 295.54 96.408C296.013 96.8817 296.655 97.1479 297.324 97.1479H416.286C416.955 97.1479 417.597 96.8817 418.071 96.408C418.544 95.9342 418.81 95.2917 418.81 94.6217C418.81 93.9517 418.544 93.3091 418.071 92.8354C417.597 92.3616 416.955 92.0954 416.286 92.0954H297.324Z" fill="white"/>
<path d="M297.324 106.734C296.655 106.734 296.013 107 295.54 107.474C295.066 107.948 294.801 108.59 294.801 109.26C294.801 109.93 295.066 110.573 295.54 111.047C296.013 111.52 296.655 111.787 297.324 111.787H416.286C416.955 111.787 417.597 111.52 418.071 111.047C418.544 110.573 418.81 109.93 418.81 109.26C418.81 108.59 418.544 107.948 418.071 107.474C417.597 107 416.955 106.734 416.286 106.734H297.324Z" fill="white"/>
<path d="M297.324 121.196C296.655 121.196 296.013 121.462 295.54 121.936C295.066 122.409 294.801 123.052 294.801 123.722C294.801 124.392 295.066 125.034 295.54 125.508C296.013 125.982 296.655 126.248 297.324 126.248H348.514C349.183 126.248 349.825 125.982 350.298 125.508C350.771 125.034 351.037 124.392 351.037 123.722C351.037 123.052 350.771 122.409 350.298 121.936C349.825 121.462 349.183 121.196 348.514 121.196H297.324Z" fill="white"/>
<path d="M136.166 9.13804C134.48 8.96098 132.889 9.85951 131.23 10.2269C127.819 10.9755 124.323 9.42384 120.815 9.43709C117.8 9.60872 114.867 10.4851 112.251 11.9961C110.136 12.997 108.205 14.3502 106.542 15.998C104.869 17.6723 103.896 19.921 103.818 22.2878C104.05 23.6435 104.008 25.0319 103.696 26.3712C103.342 27.0466 102.922 27.685 102.442 28.2771C102.008 28.9747 101.731 29.7586 101.63 30.5743C101.529 31.3899 101.607 32.2179 101.857 33.0005C102.56 34.5509 103.511 35.9763 104.672 37.2206C106.929 40.1198 108.343 43.5912 110.369 46.6681C111.252 48.0037 112.244 49.2647 113.333 50.4386C113.511 50.6466 113.728 50.8176 113.972 50.9419C114.212 51.0264 114.466 51.0633 114.72 51.0507C119.016 51.1734 123.463 51.2682 127.419 49.5805C128.686 49.1406 129.762 48.2748 130.464 47.1303C131.035 45.56 131.139 43.8579 130.763 42.2298C130.583 40.4166 130.624 38.5882 130.886 36.7849C130.904 36.1759 131.153 35.5966 131.582 35.1649C131.906 34.9631 132.278 34.8504 132.66 34.8381C133.042 34.8259 133.42 34.9146 133.757 35.0952C134.429 35.4496 135.163 35.6713 135.919 35.7484C137.401 35.7484 138.339 34.06 138.639 32.5899C138.475 31.2687 138.671 29.9279 139.204 28.7085C139.738 27.4891 140.59 26.4363 141.671 25.6609C142.689 24.3668 143.389 22.8504 143.712 21.235C144.036 19.6196 143.975 17.9505 143.533 16.3633C142.556 13.3038 139.565 9.47821 136.166 9.13804Z" fill="#2F2E41"/>
<path d="M398.334 376.551H197.622C196.637 376.55 195.692 376.158 194.996 375.46C194.299 374.763 193.907 373.817 193.906 372.831V322.984C193.907 321.997 194.299 321.051 194.995 320.354C195.692 319.656 196.637 319.264 197.622 319.263H398.334C399.319 319.264 400.264 319.656 400.96 320.354C401.657 321.051 402.049 321.997 402.05 322.984V372.83C402.049 373.816 401.657 374.762 400.96 375.46C400.264 376.157 399.319 376.55 398.334 376.551V376.551ZM197.622 320.748C197.032 320.749 196.466 320.985 196.048 321.403C195.631 321.821 195.395 322.388 195.394 322.979V372.825C195.395 373.416 195.631 373.983 196.048 374.401C196.466 374.819 197.032 375.054 197.622 375.056H398.334C398.924 375.054 399.49 374.819 399.908 374.401C400.326 373.983 400.561 373.416 400.562 372.825V322.984C400.56 322.392 400.325 321.826 399.908 321.408C399.49 320.99 398.924 320.754 398.334 320.753L197.622 320.748Z" fill="#3F3D56"/>
<path d="M170.883 194.079L164.112 122.213L143.92 122.911L159.904 193.878C158.6 194.974 157.661 196.442 157.213 198.087C156.765 199.731 156.829 201.474 157.397 203.08C157.965 204.687 159.009 206.082 160.39 207.079C161.771 208.076 163.424 208.627 165.126 208.658C166.828 208.689 168.499 208.199 169.916 207.253C171.332 206.308 172.427 204.952 173.053 203.367C173.679 201.782 173.807 200.043 173.419 198.383C173.031 196.724 172.147 195.222 170.883 194.079L170.883 194.079Z" fill="#FFB8B8"/>
<path d="M171.074 123.608L140.438 130.578L139.045 80.3887L156.452 81.0858L171.074 123.608Z" fill="#3F3D56"/>
<path d="M138.561 362.148L160.782 362.147H160.782C164.538 362.147 168.14 363.641 170.795 366.299C173.451 368.958 174.943 372.564 174.943 376.324V376.785L138.561 376.786L138.561 362.148Z" fill="#2F2E41"/>
<path d="M82.7501 344.533L101.43 356.581L101.431 356.582C104.588 358.618 106.808 361.827 107.602 365.502C108.396 369.177 107.7 373.017 105.666 376.178L105.417 376.565L74.8318 356.839L82.7501 344.533Z" fill="#2F2E41"/>
<path d="M506 376.606H-8V378H506V376.606Z" fill="#CACACA"/>
</g>
<defs>
<clipPath id="clip0">
<rect width="514" height="378" fill="white" transform="translate(-8)"/>
</clipPath>
</defs>
</svg>
