<svg width="24" height="24" viewBox="0 0 24 24" fill="none" xmlns="http://www.w3.org/2000/svg">
<path d="M21.2048 2.79515C20.8489 2.43923 20.3662 2.23928 19.8628 2.23928C19.3595 2.23928 18.8767 2.43923 18.5208 2.79515L8.625 13.8159C9.70687 14.0362 10.7869 15.0951 10.9341 16.125L21.2048 5.47921C21.5608 5.12327 21.7607 4.64053 21.7607 4.13718C21.7607 3.63382 21.5608 3.15108 21.2048 2.79515V2.79515ZM6.46875 15.75C5.06813 15.75 3.9375 16.8984 3.9375 18.3216C3.9375 19.4442 2.95875 20.0358 2.25 20.0358C3.02625 21.0816 4.35094 21.75 5.625 21.75C7.48969 21.75 9 20.2158 9 18.3216C9 16.8984 7.86937 15.75 6.46875 15.75Z" stroke="#FAFAFA" stroke-width="2" stroke-linecap="round" stroke-linejoin="round"/>
</svg>
