<svg width="24" height="24" viewBox="0 0 24 24" fill="none" xmlns="http://www.w3.org/2000/svg">
<path d="M13.0041 11.5781C12.9525 11.4842 12.8881 11.3979 12.8128 11.3217L11.9531 10.4737C11.8648 10.3839 11.7606 10.3112 11.6456 10.2595C11.4648 10.1789 11.2638 10.1548 11.069 10.1905C10.8742 10.2263 10.6948 10.3201 10.5544 10.4597C10.2563 10.7531 9.71063 11.2884 8.72625 12.2611C6.84375 14.1234 3.34828 17.2448 1.76765 18.5761C1.68802 18.6427 1.62309 18.7252 1.57697 18.8182C1.53086 18.9113 1.50457 19.0129 1.49977 19.1166C1.49496 19.2203 1.51175 19.3239 1.54907 19.4208C1.58639 19.5177 1.64342 19.6058 1.71656 19.6795L3.54469 21.5278C3.6183 21.6017 3.7064 21.6595 3.80344 21.6976C3.90049 21.7358 4.00437 21.7535 4.10857 21.7496C4.21278 21.7457 4.31504 21.7202 4.40894 21.6749C4.50285 21.6295 4.58635 21.5653 4.65422 21.4861C6.02484 19.875 9.16828 16.3767 11.0292 14.5378C11.985 13.5975 12.5208 13.0575 12.8241 12.7594C12.9745 12.6064 13.0728 12.4099 13.1051 12.1979C13.1375 11.9858 13.1021 11.7689 13.0041 11.5781V11.5781ZM22.4264 9.42187L20.8181 7.82812C20.7936 7.8036 20.7643 7.78434 20.7321 7.77152C20.6998 7.75871 20.6653 7.75261 20.6306 7.75359C20.596 7.75301 20.5616 7.75929 20.5294 7.77209C20.4972 7.78488 20.4679 7.80393 20.4431 7.82812C20.3853 7.8863 20.3148 7.93038 20.2372 7.95696C20.1596 7.98354 20.0769 7.9919 19.9955 7.9814C19.7855 7.95844 19.5619 7.89328 19.4175 7.75359C19.0894 7.43203 19.4686 6.79922 19.1799 6.39422C18.8501 5.95102 18.4885 5.53242 18.098 5.14172C17.767 4.81359 16.4663 3.57281 14.2753 2.67937C13.5761 2.39294 12.8278 2.24581 12.0722 2.24625C10.837 2.24625 9.88735 2.7975 9.54094 3.1139C9.26532 3.36328 8.97844 3.75937 8.97844 3.75937C9.14409 3.69898 9.31332 3.64889 9.48516 3.60937C9.8435 3.53258 10.2112 3.50905 10.5764 3.53953C11.3058 3.6 12.1847 3.94218 12.6563 4.3125C13.4161 4.92187 13.7428 5.73703 13.7939 6.7889C13.8314 7.57125 13.08 8.5589 12.367 9.36422C12.3043 9.43502 12.2713 9.52727 12.2748 9.6218C12.2782 9.71633 12.318 9.80589 12.3858 9.87187L13.3814 10.867C13.4508 10.9355 13.5441 10.9743 13.6416 10.9752C13.739 10.9761 13.833 10.939 13.9036 10.8717C14.5566 10.2384 15.3609 9.53719 15.817 9.2564C16.2731 8.97562 16.6411 8.8964 16.8178 8.87719C17.1651 8.84356 17.5141 8.91928 17.8163 9.09375C17.8695 9.12385 17.9181 9.16142 17.9606 9.20531C18.2634 9.51281 18.2452 10.0153 17.9372 10.3181L17.8434 10.4067C17.8191 10.4307 17.7997 10.4593 17.7865 10.4909C17.7733 10.5224 17.7665 10.5563 17.7665 10.5905C17.7665 10.6247 17.7733 10.6585 17.7865 10.6901C17.7997 10.7216 17.8191 10.7502 17.8434 10.7742L19.4517 12.368C19.4764 12.3923 19.5057 12.4114 19.5379 12.4241C19.5702 12.4368 19.6046 12.4429 19.6392 12.442C19.709 12.443 19.7764 12.4164 19.8267 12.368L22.4264 9.79687C22.4744 9.74621 22.5011 9.67912 22.5011 9.60937C22.5011 9.53963 22.4744 9.47253 22.4264 9.42187V9.42187Z" stroke="#FAFAFA" stroke-width="2" stroke-linecap="round" stroke-linejoin="round"/>
</svg>
